<svg xmlns="http://www.w3.org/2000/svg" xmlns:xlink="http://www.w3.org/1999/xlink" style="vertical-align:-.755ex" width="36.159ex" height="2.634ex" viewBox="0 -809.3 15568.4 1134.2"><defs><path id="f" stroke-width="1" d="M84 237v13l14 20h581q15-8 15-20t-15-20H98q-14 7-14 20z"/><path id="a" stroke-width="1" d="M295 316q0 40-27 69t-78 29q-36 0-62-13-30-19-30-52-1-5 0-13t16-24 43-25q18-5 44-9t44-9 32-13q17-8 33-20t32-41 17-62q0-62-38-102T198-10h-8q-52 0-96 36l-8-7-9-9Q71 4 65-1L54-11H42q-3 0-9 6v137q0 21 2 25t10 5h9q12 0 16-4t5-12 7-27 19-42q35-51 97-51 97 0 97 78 0 29-18 47-20 24-83 36t-83 23q-36 17-57 46t-21 62q0 39 17 66t43 40 50 18 44 5h11q40 0 70-15l15-8 9 7q10 9 22 17h12q3 0 9-6V310l-6-6h-28q-6 6-6 12z"/><path id="c" stroke-width="1" d="M41 46h14q39 0 47 14v62q0 17 1 39t0 42v66q0 35-1 59v23q-3 19-14 25t-45 9H25v23q0 23 2 23l10 1q10 1 28 2t37 2q17 1 36 2t29 3 11 1h3v-40q0-38 1-38t5 5 12 15 19 18 29 19 38 16q20 5 51 5 114-4 127-113 1-7 1-139v-86q0-38 2-45t11-10q21-3 49-3h16V0h-8l-24 1q-23 1-50 1t-38 1Q319 3 310 0h-8v46h16q61 0 61 16 1 2 1 138-1 135-2 143-6 28-20 42t-24 17-26 2q-45 0-79-34-27-27-34-55t-8-83V108q0-30 1-40t3-13 9-6q21-3 49-3h16V0h-8l-23 1q-24 1-51 1t-38 1Q42 3 33 0h-8v46h16z"/><path id="d" stroke-width="1" d="M94 250q0 69 10 131t23 107 37 88 38 67 42 52 33 34 25 21h17q14 0 14-9 0-3-17-21t-41-53-49-86-42-138-17-193 17-192 41-139 49-86 42-53 17-21q0-9-15-9h-16l-28 24q-94 85-137 212T94 250z"/><path id="e" stroke-width="1" d="M34 156q0 114 86 200t189 86q70 0 112-40t57-98q6-29 7-67v-29q49 74 75 166 4 14 6 16t16 3q21 0 21-8 0-9-9-39t-36-85-61-100l-11-14 1-24q2-56 8-76t19-21q14 2 26 11t17 23q2 7 5 8t15 2q20 0 20-8 0-6-6-19-12-24-35-38t-44-15h-7q-67 0-91 72l-3 7-11-8q-10-8-30-20t-45-23-58-20-64-9q-79 0-124 50T34 156zM208 26q49 0 98 21t73 43l24 22q-2 143-7 178-14 115-92 115-69 0-121-73-27-40-44-108t-18-104q0-49 25-71t62-23z"/><path id="b" stroke-width="1" d="M69 609q0 28 18 44t44 16q23-2 40-17t17-43q0-30-17-45t-42-15q-25 0-42 15t-18 45zM247 0q-15 3-104 3h-37Q80 3 56 1L34 0h-8v46h16q28 0 49 3 9 4 11 11t2 42v191q0 52-2 66t-14 19q-14 7-47 7H30v23q0 23 2 23l10 1q10 1 28 2t36 2 36 2 29 3 11 1h3V62q5-10 12-12t35-4h23V0h-8z"/><path id="g" stroke-width="1" d="M29-194q-6 6-6 8 0 3 79 320t84 331q22 68 57 119t66 74q56 47 120 47h2q62 0 102-38t40-97q0-105-104-174l13-13q51-51 51-131 0-113-85-187T257-10q-30 0-54 8t-38 19-22 23-12 19-5 6L62-188q-2-6-20-6H29zm324 625q39 0 74-12l5 3 7 7 10 10q7 7 12 14t11 18 12 24 9 29 8 36q2 9 2 33 0 18-1 23-15 51-76 51-42 0-79-24t-61-61-39-68-23-59q-5-16-38-147t-34-140q-1-5-1-21 0-48 22-79 31-42 87-42 42 0 89 25t76 86q16 34 24 77t8 65q0 58-35 93-42-14-75-14h-10q-79 0-79 31 0 7 3 14 14 28 92 28z"/><path id="h" stroke-width="1" d="M60 749l4 1h22l28-24q94-85 137-212t43-264q0-68-10-131T261 12t-37-88-38-67-41-51-32-33-23-19l-4-4H63q-3 0-5 3t-3 9q1 1 11 13Q221-64 221 250T66 725q-10 12-11 13 0 8 5 11z"/><path id="i" stroke-width="1" d="M56 347q0 13 14 20h637q15-8 15-20 0-11-14-19l-318-1H72q-16 5-16 20zm0-194q0 15 16 20h636q14-10 14-20 0-13-15-20H70q-14 7-14 20z"/><path id="j" stroke-width="1" d="M370 305h-21l-36 15-16 38q0 23 15 38 5 5 5 6t-10 2q-26 4-49 4-49 0-80-32-47-47-47-157 0-82 31-129 41-61 110-61 41 0 66 26t36 62q2 8 5 10t16 2h14q6-6 6-9 0-4-4-16t-16-33-29-38-48-31-69-13q-86 0-150 64T34 214q0 104 65 169t151 65 120-27 34-64q0-23-17-37z"/><path id="k" stroke-width="1" d="M28 214q0 95 65 164t157 70q90 0 155-68t66-165q0-95-64-160T250-10q-97 0-159 67T28 214zM250 30q122 0 122 163v57q0 22-1 38t-7 38-16 36-31 28-49 20q-5 1-16 1-30 0-57-12-43-22-56-61t-13-92v-20q0-96 19-135 32-61 105-61z"/></defs><g fill="currentColor" stroke="currentColor" stroke-width="0" transform="scale(1 -1)"><use xlink:href="#a"/><use x="394" xlink:href="#b"/><use x="673" xlink:href="#c"/><use x="1229" xlink:href="#d"/><use x="1619" xlink:href="#e"/><use x="2481" xlink:href="#f"/><use x="3482" xlink:href="#g"/><use x="4055" xlink:href="#h"/><use x="4723" xlink:href="#i"/><g transform="translate(5779)"><use xlink:href="#a"/><use x="394" xlink:href="#b"/><use x="673" xlink:href="#c"/></g><use x="7175" xlink:href="#e"/><g transform="translate(7982)"><use xlink:href="#j"/><use x="444" xlink:href="#k"/><use x="945" xlink:href="#a"/></g><use x="9488" xlink:href="#g"/><use x="10284" xlink:href="#f"/><g transform="translate(11285)"><use xlink:href="#j"/><use x="444" xlink:href="#k"/><use x="945" xlink:href="#a"/></g><use x="12791" xlink:href="#e"/><g transform="translate(13598)"><use xlink:href="#a"/><use x="394" xlink:href="#b"/><use x="673" xlink:href="#c"/></g><use x="14994" xlink:href="#g"/></g></svg>